<svg id="Layer_1" data-name="Layer 1" xmlns="http://www.w3.org/2000/svg" viewBox="0 0 391 391"><defs><style>.cls-1{fill:#00a0a8;}</style></defs><title>medium</title><path class="cls-1" d="M406.5,181.4c-108,0-195.5,87.52-195.5,195.5s87.53,195.5,195.5,195.5S602,484.87,602,376.9,514.47,181.4,406.5,181.4Zm127.74,98.38-20.42,19.59a5.78,5.78,0,0,0-2.21,5.66V448.76a5.84,5.84,0,0,0,2.21,5.66L533.68,474v4.27H433.54V474l20.69-20c2.07-2.07,2.07-2.62,2.07-5.66V332.06L398.91,477.87h-7.72l-66.9-145.81v97.67A13.26,13.26,0,0,0,328,440.9l26.9,32.56v4.27H278.76v-4.27L305.52,441A13,13,0,0,0,309,429.87v-113a10.16,10.16,0,0,0-3.17-8.42l-23.86-28.69v-4.27H356L413.26,401l50.35-125.53h70.63Z" transform="translate(-211 -181.4)"/></svg>