<svg id="Layer_1" data-name="Layer 1" xmlns="http://www.w3.org/2000/svg" viewBox="0 0 391 391"><defs><style>.cls-1{fill:#00a0a8;}</style></defs><title>twitter</title><path class="cls-1" d="M407.5,179.9c-108,0-195.5,87.53-195.5,195.5s87.53,195.5,195.5,195.5S603,483.37,603,375.4,515.47,179.9,407.5,179.9ZM527.58,323.4c.11,2.51.17,5,.17,7.55,0,77.1-58.69,166-166,166a165.13,165.13,0,0,1-89.44-26.22,118.52,118.52,0,0,0,13.92.82,117.08,117.08,0,0,0,72.47-25,58.41,58.41,0,0,1-54.51-40.52,58.35,58.35,0,0,0,26.35-1,58.38,58.38,0,0,1-46.8-57.21v-.73a58.21,58.21,0,0,0,26.43,7.3,58.41,58.41,0,0,1-18.06-77.9,165.64,165.64,0,0,0,120.26,61,58.38,58.38,0,0,1,99.43-53.21,116.87,116.87,0,0,0,37.05-14.16,58.57,58.57,0,0,1-25.65,32.28,116.73,116.73,0,0,0,33.51-9.19A118.61,118.61,0,0,1,527.58,323.4Z" transform="translate(-212 -179.9)"/></svg>