<svg id="Layer_1" data-name="Layer 1" xmlns="http://www.w3.org/2000/svg" viewBox="0 0 391 391"><defs><style>.cls-1{fill:#00a0a8;}</style></defs><title>instagram</title><path class="cls-1" d="M503,299.73a40.53,40.53,0,0,0-23.25-23.24c-4.31-1.68-10.79-3.68-22.73-4.22-12.92-.59-16.79-.72-49.49-.72h0c-32.7,0-36.57.13-49.49.72-11.94.54-18.42,2.54-22.73,4.21A40.58,40.58,0,0,0,312,299.73c-1.67,4.31-3.67,10.8-4.21,22.74-.59,12.91-.72,16.78-.72,49.48s.13,36.57.72,49.49c.54,11.94,2.54,18.42,4.21,22.74a40.55,40.55,0,0,0,23.24,23.24c4.32,1.67,10.8,3.67,22.74,4.21,12.92.59,16.79.72,49.49.72s36.57-.13,49.49-.72c11.94-.54,18.42-2.53,22.73-4.21A40.57,40.57,0,0,0,503,444.18c1.67-4.32,3.67-10.8,4.21-22.74.59-12.92.72-16.79.72-49.49s-.13-36.57-.72-49.48C506.64,310.53,504.64,304,503,299.73ZM407.5,434.84A62.89,62.89,0,1,1,470.38,372,62.89,62.89,0,0,1,407.5,434.84Zm65.37-113.56a14.7,14.7,0,1,1,14.69-14.7A14.7,14.7,0,0,1,472.87,321.28Z" transform="translate(-212 -176.45)"/><path class="cls-1" d="M407.5,176.45C299.53,176.45,212,264,212,372s87.53,195.5,195.5,195.5S603,479.92,603,372,515.47,176.45,407.5,176.45Zm121.73,246c-.6,13-2.67,21.94-5.7,29.73A62.59,62.59,0,0,1,487.72,488c-7.79,3-16.69,5.1-29.73,5.69s-17.23.74-50.49.74-37.43-.14-50.49-.74S335.07,491,327.28,488a62.57,62.57,0,0,1-35.81-35.81c-3-7.79-5.1-16.69-5.69-29.73S285,405.21,285,372s.14-37.43.74-50.49,2.66-21.94,5.68-29.73a62.62,62.62,0,0,1,35.82-35.81c7.79-3,16.69-5.1,29.73-5.69s17.23-.74,50.49-.74h0c33.26,0,37.43.14,50.49.74s21.94,2.66,29.73,5.69a62.57,62.57,0,0,1,35.81,35.81c3,7.79,5.1,16.69,5.7,29.73S530,338.69,530,372,529.82,409.38,529.23,422.44Z" transform="translate(-212 -176.45)"/><circle class="cls-1" cx="407.5" cy="371.95" r="40.82" transform="translate(-224.08 553.77) rotate(-82.88)"/></svg>