<svg xmlns="http://www.w3.org/2000/svg" viewBox="0 0 175.95 117.96"><defs><style>.cls-1{fill:none;stroke:#fff;stroke-linecap:round;stroke-miterlimit:10;stroke-width:2px;}</style></defs><title>Asset 1</title><g id="Layer_2" data-name="Layer 2"><g id="Layer_1-2" data-name="Layer 1"><path class="cls-1" d="M156.19,77.93,140,102.56M175,32,140.87,84m14.7-57.09L137.13,55m-2.37,3.62L118.6,83.24m35.13-70.88L120,63.8m-11.16-.33-19,29m-2.12,3.24L73.75,117m33.31-68.11-34,51.85M92.42,53.84,79.49,73.55m8.22-29.87L69,72.19M66.8,75.56,50.88,99.83M85.54,29.66,52,80.82m19.49-47L58.31,53.84m.84-18.61L40.25,64.05m-2.08,3.17L22,91.92M57.57,20.31l-34.13,52M43,25.18l-13.1,20m8.32-30L19.15,44.22m-2.08,3.16L1,71.88M36.13,1,2.48,52.3m19.43-47L8.73,25.44"/></g></g></svg>