<?xml version="1.0" encoding="utf-8"?>
<!-- Generator: Adobe Illustrator 21.1.0, SVG Export Plug-In . SVG Version: 6.00 Build 0)  -->
<svg version="1.1" id="Layer_1" xmlns="http://www.w3.org/2000/svg" xmlns:xlink="http://www.w3.org/1999/xlink" x="0px" y="0px"
	 viewBox="0 0 195 195" style="enable-background:new 0 0 195 195;" xml:space="preserve">
<style type="text/css">
	.st0{fill:#FFFFFF;}
</style>
<title>Monogram</title>
<desc>Created with Sketch.</desc>
<g id="Monogram">
	<path id="Shape" class="st0" d="M26.8,54c0.2-2.3-0.6-4.5-2.3-6.1L7.2,27.1V24h53.7l41.5,91l36.5-91h51.2v3.1l-14.8,14.2
		c-1.3,1-1.9,2.6-1.6,4.1v104.2c-0.3,1.6,0.4,3.2,1.6,4.1l14.4,14.2v3.1h-72.6v-3.1l15-14.5c1.5-1.5,1.5-1.9,1.5-4.1V65L92,170.7
		h-5.6L37.9,65v70.8c-0.4,3,0.6,6,2.7,8.1l19.5,23.6v3.1H4.9v-3.1L24.3,144c2.1-2.2,3-5.2,2.5-8.1V54z"/>
</g>
</svg>
